<svg width="206" height="230" viewBox="0 0 206 230" fill="none" xmlns="http://www.w3.org/2000/svg">
<g clip-path="url(#clip0_1_4)">
<path fill-rule="evenodd" clip-rule="evenodd" d="M21.2702 230C7.90716 211.594 1.38413 193.472 0.733498 175.634C-0.634503 138.254 18.8845 110.361 47.8795 90.2692C78.3759 69.1363 109.74 63.891 140.236 48.136C155.468 40.2775 173.636 27.4008 203.865 0C213.741 29.711 182.311 77.4494 131.261 102.691C147.076 103.392 164.11 97.8816 182.728 84.2475C181.46 122.006 155.268 145.241 97.1442 154.217C109.373 158.856 123.987 159.103 142.639 153.119C124.671 221.195 50.5488 172.434 21.2702 230Z" fill="#FDE04B"/>
</g>
<defs>
<clipPath id="clip0_1_4">
<rect width="205" height="230" fill="white" transform="translate(0.666656)"/>
</clipPath>
</defs>
</svg>
